<svg width="49" height="49" viewBox="0 0 49 49" fill="none" xmlns="http://www.w3.org/2000/svg">
    <g clip-path="url(#clip0_335_1949)">
        <mask id="mask0_335_1949" style="mask-type:luminance" maskUnits="userSpaceOnUse" x="0" y="0"
            width="49" height="49">
            <path d="M0.257812 0.402344H48.4545V48.5991H0.257812V0.402344Z" fill="white" />
        </mask>
        <g mask="url(#mask0_335_1949)">
            <path
                d="M0.257812 24.5007C0.257812 14.0854 0.257813 8.88015 3.06768 5.32805C3.68864 4.54321 4.39868 3.83318 5.18352 3.21221C8.7308 0.402344 13.9409 0.402344 24.3562 0.402344C34.7715 0.402344 39.9767 0.402344 43.5288 3.21221C44.3144 3.83395 45.0229 4.54244 45.6447 5.32805C48.4545 8.87533 48.4545 14.0854 48.4545 24.5007C48.4545 34.916 48.4545 40.1213 45.6447 43.6734C45.0237 44.4582 44.3137 45.1682 43.5288 45.7892C39.9816 48.5991 34.7715 48.5991 24.3562 48.5991C13.9409 48.5991 8.73562 48.5991 5.18352 45.7892C4.39868 45.1682 3.68864 44.4582 3.06768 43.6734C0.257813 40.1261 0.257812 34.916 0.257812 24.5007Z"
                fill="#013CC8" />
        </g>
        <path
            d="M19.4512 7.32526C16.9818 8.14225 16.9084 8.19733 17.1563 8.9317C17.2572 9.23463 17.2572 9.24381 17.8906 9.28053C19.0656 9.34479 18.9738 9.66608 17.5602 10.3546C15.0357 11.5755 12.5664 13.6317 11.318 15.5503C10.2072 17.2577 9.34434 19.5526 8.93125 21.8842C8.67422 23.3714 8.67422 25.8223 8.94961 27.5298C9.00469 27.8694 8.99551 27.8878 8.67422 28.0255C8.49063 28.0989 8.31621 28.2274 8.28867 28.3008C8.26113 28.3835 8.0041 28.5487 7.71953 28.6772C6.95762 29.026 5.73672 29.8706 5.35117 30.3112C4.89219 30.8344 4.48828 31.7065 4.48828 32.1747C4.48828 32.6704 4.98398 33.4782 5.80098 34.3135C6.14063 34.6715 6.44355 34.9561 6.46191 34.9653C6.48945 34.9653 6.72813 35.103 6.98516 35.2774C8.04082 35.9475 9.0873 36.3698 12.0615 37.3337C15.9721 38.5913 17.1471 38.8942 19.4787 39.2339C23.123 39.7571 26.7582 39.7112 30.3291 39.087C31.7244 38.8483 34.7445 37.9579 38.499 36.6911C39.7383 36.2688 41.4457 35.5344 41.9598 35.1948C42.1525 35.0663 42.3453 34.9653 42.3912 34.9653C42.5932 34.9653 43.9701 33.5333 44.1904 33.0926C44.9615 31.5505 43.6397 29.7237 40.8031 28.4018C38.701 27.4196 34.7537 26.3548 31.9172 26.0151L31.3939 25.9508L31.2379 25.501C30.935 24.6657 30.3566 24.427 30.0996 25.0421C30.0445 25.1981 29.8242 25.4827 29.6223 25.6846L29.2551 26.0426L28.6859 25.5653C28.3738 25.3083 27.9148 24.9503 27.667 24.7758L27.2172 24.4729L27.4926 24.3536C27.6395 24.2893 28.2361 24.0506 28.8145 23.8303C30.834 23.0501 35.9012 20.7919 37.425 19.984C38.5174 19.4057 39.8484 18.5153 40.1422 18.1573C40.335 17.9278 40.3533 17.8452 40.2799 17.5973C40.234 17.4321 40.1973 17.2852 40.1973 17.2669C40.1973 17.1934 39.5272 16.9731 39.3068 16.9731C39.0865 16.9731 38.9947 16.8721 38.6643 16.3489C37.425 14.3477 35.0475 11.9702 32.9912 10.6667C31.8897 9.96901 30.017 9.24381 28.3463 8.87662C27.0703 8.60123 24.0135 8.53698 22.5723 8.76647C21.1678 8.9776 20.8832 8.98678 20.8465 8.77565C20.8189 8.62877 20.8924 8.54616 21.59 7.95866C21.8471 7.74752 21.8471 7.72916 21.7553 7.3528C21.6543 6.98561 21.4432 6.78366 21.177 6.78366C21.1127 6.78366 20.3324 7.03151 19.4512 7.32526ZM21.5625 7.34362C21.691 7.65573 21.6084 7.81178 21.1678 8.04127C20.7547 8.25241 18.9463 8.85827 18.1752 9.04186C17.5143 9.19791 17.4959 9.19791 17.3674 9.0235C17.2939 8.9317 17.248 8.72057 17.2664 8.57369C17.2939 8.30748 17.349 8.27994 18.4506 7.86686C19.8826 7.33444 21.0852 6.97643 21.2963 7.03151C21.3789 7.05905 21.5074 7.19674 21.5625 7.34362ZM27.4375 8.89498C28.5666 9.07858 29.9619 9.4733 31.0359 9.90475C33.1656 10.7676 34.9373 12.0987 36.8742 14.311C37.5627 15.0913 38.7928 16.8538 38.7102 16.9364C38.6826 16.9547 38.5174 16.7528 38.3338 16.4774C37.7096 15.5411 36.5438 14.1733 35.5707 13.2278C33.2666 11.0063 31.4857 10.0608 28.1811 9.29889C27.3916 9.1153 26.8959 9.06022 25.5557 9.03268L23.9033 9.00514L25.2344 9.07858C26.9051 9.17037 27.9791 9.35397 29.5488 9.82213C31.9723 10.5381 33.8082 11.6856 35.791 13.7235C36.9201 14.8893 38.6367 17.0649 38.4256 17.0649C38.4072 17.0649 38.0033 16.5784 37.526 15.9817C36.4703 14.6598 34.5977 12.7688 33.6797 12.0803C32.6516 11.3184 31.2012 10.5932 29.7875 10.1342C28.0525 9.57428 26.8684 9.36315 25.2436 9.31725C24.5092 9.29889 24.1512 9.29889 24.4541 9.31725C27.4191 9.49166 29.5947 10.0149 31.7061 11.0522C33.0004 11.6948 34.0285 12.4751 35.2678 13.751C36.3326 14.8618 37.985 16.9731 37.7738 16.9731C37.7555 16.9731 37.3883 16.5233 36.9568 15.9725C35.8828 14.6139 33.799 12.521 32.8994 11.9059C31.449 10.9053 28.3738 9.81295 26.6297 9.67526C26.0146 9.62936 26.0146 9.62936 26.7949 9.76705C28.0342 9.97819 29.8701 10.5198 31.0176 11.0155C32.2293 11.5387 33.083 12.0895 33.9459 12.9249C34.2764 13.237 34.3865 13.3747 34.1846 13.2186C33.1473 12.4108 32.0182 11.6764 31.2654 11.3276C30.1639 10.8135 28.4105 10.2536 27.9148 10.2444C27.7037 10.2444 27.5752 10.2077 27.6303 10.171C27.768 10.0883 26.7766 9.85885 26.6021 9.93229C26.5287 9.95983 26.6205 9.98737 26.7949 10.0057L27.1162 10.0241L26.7949 10.0883C26.492 10.1526 26.492 10.1526 26.7307 10.171C27.2172 10.1893 29.8609 11.1165 30.8615 11.6122C31.9264 12.1354 33.083 12.8973 34.0652 13.7143C34.9924 14.4762 37.2322 17.1108 37.1496 17.3403C37.1313 17.4046 36.8283 17.0833 36.4795 16.6335C35.6166 15.5411 33.9 13.8245 32.9545 13.1268C32.0732 12.4751 30.8982 11.7866 30.0078 11.4194C29.2918 11.1165 27.9057 10.6391 27.768 10.6483C27.7129 10.6483 28.1627 10.8227 28.7777 11.043C30.9258 11.8049 32.826 12.9983 34.4141 14.5864C35.3412 15.5135 36.9844 17.4505 36.9844 17.6157C36.9844 17.6799 37.1496 17.579 37.3607 17.3862C37.6361 17.1383 37.7922 17.0649 37.9391 17.1016C38.04 17.1292 38.5082 17.1567 38.958 17.1567C39.6189 17.1659 39.7383 17.1842 39.5547 17.2669C39.4262 17.3219 38.9764 17.3678 38.5449 17.3678C38.0309 17.377 37.9207 17.3862 38.2236 17.4137L38.6826 17.4505L38.3154 17.579C37.9207 17.7167 38.0125 17.6983 39.1691 17.4596C39.9219 17.3036 39.9402 17.3036 40.0688 17.478C40.2799 17.7626 40.2156 17.8452 39.7566 17.8635C39.2793 17.8819 37.5443 18.4143 35.0566 19.3139C34.1754 19.6352 32.3578 20.287 31.0176 20.7643C29.6773 21.2417 27.9883 21.8567 27.2631 22.1229L25.9504 22.6094L25.7209 22.3524L25.5006 22.0954L26.8133 21.6364C27.5385 21.3885 28.7043 20.9846 29.4111 20.7368C30.118 20.4981 31.2563 20.085 31.9355 19.8188C33.3859 19.2589 35.0107 18.7173 35.9563 18.4878C36.3234 18.4051 36.608 18.3133 36.5897 18.2858C36.5621 18.2674 36.1398 18.3501 35.6441 18.4786C34.6895 18.7173 34.46 18.7264 34.974 18.4878C35.2678 18.3501 35.277 18.3409 35.0199 18.396C34.873 18.4327 34.6252 18.552 34.4875 18.6714C34.3406 18.7999 33.9092 18.9926 33.5145 19.1212C33.1289 19.2405 32.2109 19.5801 31.4766 19.8647C30.7422 20.1585 29.7875 20.5073 29.3469 20.6542C28.9063 20.801 27.9057 21.1407 27.1162 21.4253C26.3359 21.7006 25.6199 21.9301 25.5281 21.9301C25.4271 21.9301 25.2803 21.8475 25.1793 21.7374C24.9406 21.4712 24.5367 21.2784 24.3715 21.3426C24.298 21.3702 24.1879 21.5354 24.1328 21.7098C24.0686 21.8842 23.8941 22.1229 23.7381 22.2423C23.3801 22.4993 22.2877 22.9491 21.8379 23.0042C21.5074 23.0501 21.5074 23.0501 21.3422 22.5268C21.2504 22.2423 21.1586 22.0219 21.1402 22.0495C21.1219 22.0678 21.1678 22.2606 21.2412 22.4809C21.4248 22.9858 21.4156 23.0592 21.2045 22.9399C21.1035 22.894 20.9566 22.637 20.874 22.3799C20.6996 21.8659 20.5986 21.8016 20.7363 22.3065C20.8557 22.7196 20.8557 22.7563 20.6996 22.7563C20.617 22.7563 20.4977 22.5544 20.4059 22.2514C20.2039 21.6272 20.1488 21.6456 20.2957 22.2881C20.3691 22.637 20.3783 22.7839 20.2957 22.8665C20.2223 22.9399 20.158 22.8206 20.0387 22.4075C19.8367 21.6731 19.7541 21.7374 19.9469 22.4809C20.0754 22.9583 20.0754 23.0776 19.9652 23.2796C19.8459 23.509 19.8367 23.4815 19.6348 22.6737C19.5246 22.2055 19.4145 21.8475 19.3869 21.8659C19.3686 21.8934 19.442 22.2881 19.543 22.7471C19.7357 23.5366 19.7357 23.8579 19.5705 23.8579C19.5246 23.8579 19.3686 23.3805 19.2217 22.793C18.882 21.4803 18.8178 21.5354 19.1299 22.8848C19.3318 23.812 19.3502 24.17 19.1758 23.9772C19.0932 23.8946 18.625 22.0862 18.6158 21.8016C18.6158 21.6915 18.5883 21.6639 18.5607 21.719C18.524 21.8292 18.8453 23.7018 18.9646 24.0048C19.0014 24.1057 18.983 24.1424 18.9004 24.1149C18.7627 24.069 18.6709 23.7753 18.3037 22.2055C18.0375 21.0856 18.0834 21.7098 18.368 23.0776C18.5975 24.2067 18.6066 24.2434 18.4781 24.2893C18.368 24.326 18.1936 23.6651 17.8906 22.0219C17.6336 20.6817 17.6795 21.3702 17.9457 22.9399C18.1568 24.2067 18.1752 24.5372 18.0191 24.3811C17.9457 24.3169 17.6336 22.9124 17.4775 21.9301L17.349 21.1499L17.4041 21.8383C17.4316 22.2147 17.5234 22.9583 17.6244 23.4907C17.7896 24.427 17.7896 24.6198 17.6244 24.4454C17.5326 24.3536 17.2756 23.1602 17.1104 22.0219C17.0461 21.5905 16.991 21.3885 16.9818 21.563C16.9818 21.7374 17.0553 22.4167 17.1563 23.0684C17.3674 24.4178 17.3766 24.5739 17.248 24.4454C17.1287 24.326 16.8992 23.2061 16.734 22.0219L16.6146 21.0581L16.6605 21.976C16.6881 22.4809 16.7432 23.0776 16.7891 23.3071C16.835 23.5366 16.8717 23.8854 16.8809 24.0965C16.8809 24.4637 16.89 24.4637 17.3215 24.5739C17.7254 24.684 17.8172 24.6657 18.8178 24.326C19.4053 24.1333 19.9836 23.9221 20.1029 23.8487C20.2223 23.7844 20.5711 23.6559 20.874 23.5641C21.4064 23.3989 21.4064 23.3989 21.0117 23.4448C20.7822 23.4723 20.4059 23.5917 20.1672 23.711C19.9193 23.8303 19.7266 23.9038 19.7266 23.8854C19.7266 23.8671 19.8 23.7385 19.8826 23.6008C20.3141 22.9032 20.5527 22.8206 21.2963 23.0776C21.6727 23.2153 21.7369 23.2153 22.2969 23.0225C22.6273 22.9124 23.0863 22.7288 23.3342 22.6094C23.5729 22.4901 23.7656 22.435 23.7656 22.4901C23.7656 22.6645 22.1867 23.3438 21.792 23.3346C21.535 23.3346 21.4799 23.353 21.6084 23.3989C21.7736 23.4631 21.7645 23.4815 21.5166 23.5366C21.3697 23.5825 20.6262 23.8487 19.8643 24.1333C19.1115 24.427 18.1752 24.7575 17.7988 24.8676C17.4225 24.987 16.6605 25.2715 16.1006 25.5102C15.5498 25.7489 14.7787 26.0335 14.4023 26.1436C14.026 26.2538 13.2549 26.5751 12.6949 26.8505C11.8963 27.2544 11.5566 27.3645 11.1527 27.3921C10.8682 27.4104 10.5285 27.4839 10.3816 27.5573C10.2439 27.6307 9.88594 27.8235 9.59219 27.9796C9.28926 28.1356 8.98633 28.2458 8.92207 28.2274C8.84863 28.1999 8.82109 28.209 8.84863 28.2641C8.87617 28.31 8.81191 28.3926 8.71094 28.4477C8.60996 28.5028 8.52734 28.5762 8.52734 28.6221C8.52734 28.6956 9.38105 28.2825 10.1063 27.8602C10.3725 27.7042 10.7764 27.5756 11.1619 27.5206C11.6117 27.4563 12.1166 27.2819 12.9336 26.8964C13.567 26.5934 14.3564 26.263 14.7053 26.162C15.0449 26.0518 15.559 25.859 15.8527 25.7305C16.1373 25.5928 17.1654 25.2073 18.1201 24.8676C21.3055 23.7202 22.6182 23.2428 22.9762 23.0868C23.1781 23.0042 23.3525 22.9583 23.3709 22.9766C23.426 23.0317 22.6732 23.5825 22.5539 23.5825C22.508 23.5825 22.4896 23.6192 22.5264 23.6743C22.609 23.812 21.9939 24.0782 18.6893 25.3174C13.108 27.4196 9.49121 28.87 9.05977 29.1821C8.7293 29.4208 8.72012 29.4208 8.56406 29.0444C8.44473 28.7506 8.41719 28.7323 8.20605 28.8333C8.08672 28.8883 8.0041 28.9801 8.04082 29.026C8.07754 29.0811 8.04082 29.0995 7.93984 29.0628C7.76543 28.9893 7.29727 29.2096 6.71895 29.6319C6.34258 29.9073 6.32422 29.944 6.32422 30.3846C6.32422 30.6692 6.2875 30.8253 6.23242 30.7885C6.18652 30.761 6.14063 30.7794 6.14063 30.8344C6.14063 30.8895 6.09473 30.9079 6.03047 30.8712C5.96621 30.8253 5.94785 30.8528 5.98457 30.9538C6.02129 31.0548 5.93867 31.1465 5.6541 31.2751C5.44297 31.376 5.1584 31.4862 5.0207 31.5137C4.80957 31.5596 4.78203 31.5505 4.82793 31.4128C4.93809 31.119 5.37871 30.5223 5.7918 30.1276C6.45273 29.4942 8.25195 28.411 8.25195 28.6497C8.25195 28.8241 8.44473 28.5946 8.47227 28.3926C8.49063 28.2641 8.67422 28.154 9.11484 27.9979C9.45449 27.8786 9.71152 27.7592 9.68398 27.7409C9.66563 27.7133 9.80332 27.4839 9.99609 27.2268C10.2256 26.9331 10.3174 26.7311 10.2531 26.6944C10.198 26.6577 10.143 26.0335 10.1154 25.0421C10.042 22.5544 10.3908 20.0208 11.0518 18.3501C11.1803 18.0288 11.2629 17.7534 11.2445 17.735C11.1803 17.6708 10.6662 19.112 10.4643 19.9106C10.0604 21.563 9.96856 22.435 9.9502 24.8034C9.94102 26.3915 9.9043 27.1075 9.83086 27.1809C9.74824 27.2635 9.7207 27.2635 9.71152 27.1534C9.71152 27.0891 9.67481 26.5475 9.62891 25.9692C9.48203 23.9589 9.83086 21.0673 10.4459 19.2589C10.7947 18.2215 11.4373 16.9456 11.575 17.0282C11.6393 17.0649 11.6484 17.0557 11.6117 16.9823C11.575 16.9272 11.676 16.6426 11.8412 16.3489C12.5572 15.0637 15.0541 12.5577 16.3852 11.7774C16.6055 11.6489 16.7891 11.5204 16.7891 11.502C16.7891 11.3276 15.1092 12.5393 14.0811 13.4481C13.466 13.9989 12.5205 15.0729 12.0432 15.7797C11.6393 16.3764 10.6111 18.4602 10.3174 19.268C9.57383 21.3518 9.26172 24.8034 9.61973 27.0065C9.67481 27.3186 9.65645 27.4655 9.57383 27.5389C9.40859 27.6674 9.37188 27.5022 9.26172 26.061C8.97715 22.5176 9.9502 18.5337 11.7678 15.8256C12.6949 14.4395 14.2555 12.9065 15.715 11.9426C16.1924 11.6214 16.5137 11.3643 16.2383 11.5112C15.7518 11.7774 14.3748 12.7872 13.723 13.3563C11.6393 15.1739 10.2256 17.7258 9.49121 20.9846C9.07813 22.8481 8.98633 24.9227 9.21582 27.3003C9.30762 28.1815 9.11484 27.7042 8.99551 26.7495C8.86699 25.6938 8.86699 23.5825 8.99551 22.536C9.3168 19.9381 10.4918 16.8721 11.8688 15.0454C14.3014 11.8141 19.0105 9.27135 23.426 8.80319C24.3164 8.71139 26.593 8.76647 27.4375 8.89498ZM29.1633 10.6483C29.8059 10.8594 30.7422 11.2266 31.2471 11.4653C32.3762 12.0069 34.258 13.3196 35.0475 14.1274C36.0205 15.1188 37.6086 17.1567 37.4066 17.1567C37.3791 17.1567 37.1496 16.8813 36.8926 16.5325C36.25 15.688 34.9373 14.2651 34.2764 13.7051C32.8902 12.5301 30.3934 11.0981 29.1725 10.786C28.5941 10.6299 27.7037 10.2811 27.8781 10.2811C27.9424 10.2719 28.5207 10.4372 29.1633 10.6483ZM24.5918 22.279C24.5918 22.793 24.5459 22.9858 24.3072 23.4356C24.0318 23.9589 24.0227 23.9956 24.1695 24.2251C24.2705 24.4087 24.2889 24.5464 24.2338 24.7575C24.1695 24.9778 24.1879 25.0971 24.3623 25.3542L24.5826 25.6663L24.3898 26.0243C24.243 26.2997 24.2154 26.4741 24.2521 26.8137C24.3164 27.3003 24.3348 27.3003 23.7289 26.8688C23.4352 26.6577 23.3434 26.6301 23.1781 26.7219C22.8477 26.8964 21.7461 28.0897 21.7461 28.2641C21.7461 28.5762 20.7455 29.6319 20.1764 29.9165C19.6348 30.1919 18.4781 31.0823 18.0742 31.5321L17.8447 31.7891L18.0834 31.6055C18.2211 31.5137 18.6158 31.2016 18.9646 30.9171C19.3135 30.6325 19.8551 30.2653 20.158 30.1092C20.7822 29.7971 21.7002 28.8516 21.8838 28.3284C22.0123 27.9796 23.1689 26.7678 23.3342 26.8137C23.3893 26.8321 23.5361 27.0249 23.6371 27.2268C23.7473 27.438 23.9584 27.7684 24.1145 27.9612C24.3623 28.2733 24.4357 28.3192 24.702 28.2825C24.9131 28.2641 25.0783 28.31 25.2344 28.4294C25.4547 28.6038 25.4547 28.6313 25.3445 29.1454L25.2344 29.687L25.7393 30.1919C26.2258 30.6784 26.2441 30.7243 26.1523 30.9813C26.0973 31.1282 25.9137 31.3944 25.7484 31.5688C25.574 31.7432 25.3354 32.0645 25.2068 32.2665C25.0783 32.4776 24.8396 32.7438 24.6744 32.8631L24.3807 33.0651L24.601 33.1477C25.06 33.3221 26.8225 33.3405 28.1627 33.1844C28.8971 33.0926 29.558 32.9917 29.6314 32.9458C29.7324 32.8907 29.6773 32.8723 29.457 32.8907C29.2826 32.909 29.2184 32.8999 29.3193 32.8723L29.5029 32.8356L29.3193 32.753C29.1725 32.6979 29.2 32.6796 29.457 32.6704C29.76 32.6612 29.7416 32.652 29.2275 32.4868C28.5941 32.2756 28.5023 32.2665 28.585 32.395C28.7869 32.7163 27.9057 32.0645 27.0244 31.2383C26.3451 30.6049 26.7398 30.862 27.566 31.6055C28.484 32.4225 28.3738 32.1839 27.4283 31.3118C26.9785 30.8987 26.6297 30.559 26.6664 30.559C26.6939 30.559 27.0795 30.8895 27.5293 31.2842C28.383 32.0553 28.64 32.2206 29.2092 32.3766C29.6773 32.5051 29.6406 32.3858 29.1541 32.1839C28.5941 31.9544 26.2074 30.0083 25.8035 29.4575C25.6475 29.2464 25.776 29.3381 26.1707 29.7237C26.5654 30.1001 26.8133 30.2837 26.8959 30.2378C26.9602 30.1919 26.9877 30.201 26.9418 30.2653C26.8316 30.4397 28.943 32.0737 29.4111 32.1747C29.659 32.2206 29.659 32.2114 29.3193 32.0278C28.7594 31.7157 27.5293 30.7243 27.0979 30.2378C26.85 29.9532 26.6756 29.8339 26.593 29.8798C26.5287 29.9165 26.5012 29.9073 26.5471 29.8706C26.5838 29.8247 26.4186 29.586 26.1799 29.329C25.5924 28.7048 26.0973 29.127 27.1162 30.1092C28.0709 31.0272 28.8695 31.6881 29.301 31.8993C29.6406 32.0737 29.5764 32.0003 28.998 31.5688C28.7686 31.3944 28.2545 30.9354 27.8506 30.5499C27.4467 30.1643 26.8133 29.586 26.4553 29.2739C26.0881 28.9526 25.7852 28.6772 25.7852 28.6589C25.7852 28.6313 26.0514 28.8241 26.3818 29.0811C26.9969 29.5676 27.1346 29.6044 26.7766 29.1913L26.5654 28.9526L26.8225 29.1729C26.9602 29.3014 27.0611 29.4483 27.0428 29.4942C27.0061 29.586 27.2355 29.8155 27.3549 29.8247C27.3916 29.8247 27.465 29.6319 27.5293 29.384C27.5844 29.1454 27.7955 28.6956 27.9975 28.3835C28.1994 28.0622 28.4473 27.5665 28.5574 27.2819C28.7043 26.8688 28.8879 26.6301 29.4111 26.1344C29.7783 25.7856 30.1271 25.3817 30.1914 25.2348C30.2832 25.0145 30.3566 24.9594 30.5678 24.9778C30.7055 24.987 30.7973 25.0329 30.7697 25.0788C30.7422 25.1155 30.6596 25.1339 30.577 25.0971C30.4484 25.0512 30.4484 25.0604 30.5861 25.2073C30.7238 25.3633 30.7238 25.4276 30.6137 25.8499C30.4943 26.2905 30.5035 26.3548 30.7055 26.8505C30.8156 27.135 30.9625 27.4196 31.0084 27.4655C31.0635 27.5206 31.1094 27.7409 31.1094 27.952C31.1094 28.1631 31.1645 28.4661 31.2379 28.6313C31.3022 28.7965 31.3389 29.0077 31.3113 29.1087C31.2746 29.2555 31.2379 29.2372 30.9809 28.9618C30.6963 28.6589 30.017 28.2366 30.1363 28.4385C30.2281 28.5854 30.0445 28.5579 29.9252 28.411C29.8059 28.2641 28.6309 27.7684 28.5666 27.8327C28.5482 27.8602 28.6859 28.0071 28.8787 28.1723C29.0715 28.3376 29.1541 28.4477 29.0715 28.4202C28.8236 28.3284 28.8695 28.4018 29.2734 28.6772C29.5764 28.8883 29.6682 29.0352 29.8701 29.6503C30.0996 30.3204 30.1455 30.3846 30.5678 30.6417C30.9992 30.9171 31.0176 30.9446 31.0176 31.3393C31.0176 31.6973 30.99 31.7708 30.7881 31.8442C30.4393 31.9819 30.5127 32.0278 30.9992 31.9819L31.4307 31.9452L30.9258 32.0645C30.2465 32.2389 30.5861 32.2389 31.7428 32.0737C32.266 32.0003 32.7158 31.9544 32.7342 31.9727C32.7525 31.9911 32.367 32.0737 31.8713 32.1655C30.6963 32.3674 30.6596 32.3674 30.9258 32.3858C31.0543 32.3858 31.7336 32.294 32.4404 32.1655C33.4043 31.9911 33.8725 31.8626 34.3223 31.6331C34.9098 31.3393 34.9189 31.3301 34.9006 30.9813C34.8822 30.7885 34.7721 30.4489 34.6436 30.2286C34.515 30.0083 34.4416 29.8247 34.4783 29.8247C34.6527 29.8247 35.5156 30.3846 35.69 30.6141C36.25 31.3301 35.69 31.9911 33.9092 32.6979C31.5959 33.6159 28.5023 34.0657 24.4541 34.0657C20.0846 34.0749 16.4127 33.4506 14.3014 32.3399C13.5119 31.9268 13.0254 31.4678 13.0254 31.1557C13.0254 30.8253 13.5303 30.3112 14.1361 30.0358C14.5309 29.8522 14.6961 29.7237 14.7604 29.5401C14.8154 29.384 14.9898 29.2096 15.2102 29.0995C15.6967 28.8516 16.9451 27.6674 17.1563 27.2544C17.3031 26.9698 17.3949 26.8964 17.6795 26.8505C18.1752 26.7587 18.5148 26.621 18.5699 26.4649C18.6342 26.2997 18.5332 26.3089 18.3129 26.4741C18.2119 26.5475 18.0742 26.6118 18.01 26.6118C17.8264 26.6118 18.6158 25.9417 18.8361 25.9049C19.1023 25.8682 20.2131 25.8774 20.259 25.9141C20.2773 25.9325 20.0846 26.2354 19.8459 26.5751C19.5338 27.0065 19.2033 27.337 18.7627 27.6399C18.0742 28.1081 17.0645 28.9801 17.0645 29.1178C17.0645 29.1546 17.3031 28.9801 17.5969 28.7231C17.8814 28.4661 18.4139 28.053 18.7627 27.8143C19.2309 27.493 19.5246 27.2176 19.8459 26.7403C20.0846 26.3915 20.4334 25.96 20.617 25.7856C20.8098 25.6112 21.1035 25.2807 21.2688 25.0512C21.5809 24.6381 22.1041 24.1424 22.2326 24.1333C22.2693 24.1333 22.508 23.9864 22.765 23.812C23.4076 23.3714 24.0594 22.5268 24.3164 21.8108C24.4633 21.3977 24.5918 21.618 24.5918 22.279ZM25.1426 23.2612C25.1426 23.2153 25.2436 23.2796 25.3721 23.3989C25.5006 23.5182 25.6016 23.6559 25.6016 23.711C25.5924 23.7661 25.4914 23.6835 25.3721 23.5366C25.2436 23.3805 25.1426 23.3071 25.1426 23.3622C25.1426 23.4173 25.2068 23.5182 25.2803 23.5825C25.3537 23.6467 25.418 23.7477 25.418 23.8028C25.418 23.8579 25.317 23.7753 25.1885 23.6284C24.8396 23.1969 24.9223 23.4356 25.2895 23.9221C25.6934 24.4546 25.7393 24.5005 25.6658 24.2893C25.6291 24.1883 25.6383 24.1424 25.7025 24.1792C25.7484 24.2159 25.7668 24.3169 25.7393 24.4178C25.7025 24.5372 25.7209 24.5923 25.7943 24.5739C25.8678 24.5555 25.9229 24.6381 25.932 24.7575C25.9412 24.987 26.0697 25.1339 27.2998 26.419C27.8965 27.0432 27.9975 27.1809 27.6578 26.9055C27.41 26.6944 27.1346 26.52 27.0611 26.52C26.9785 26.5292 27.0152 26.5934 27.1621 26.7128C27.5568 27.034 27.9975 27.4747 28.0893 27.6399C28.2361 27.9153 28.0434 27.8235 27.8506 27.5298C27.7496 27.3737 27.309 26.979 26.8684 26.6577C26.4186 26.3272 26.0605 26.0151 26.0605 25.9508C26.0605 25.8958 26.1523 25.9325 26.2717 26.0426C26.6756 26.4282 26.648 26.2446 26.235 25.804C25.776 25.3266 25.5098 24.9686 25.5098 24.8217C25.5098 24.7758 25.5924 24.8309 25.6934 24.9594C25.7943 25.088 25.877 25.1522 25.877 25.1155C25.877 25.0053 25.2619 24.0598 24.9039 23.61C24.5551 23.1878 24.4908 23.0042 24.7754 23.2612C24.9773 23.4448 25.0324 23.3346 24.8488 23.1235C24.7846 23.0501 24.8213 23.0684 24.9406 23.1602C25.0508 23.2612 25.1426 23.2979 25.1426 23.2612ZM25.7852 23.4081C25.7852 23.2061 25.9596 23.3989 26.4461 24.1149C26.7031 24.5005 27.2355 25.1522 27.6119 25.5561L28.3096 26.2813L27.6303 25.6938C27.2355 25.345 26.7766 24.8309 26.5379 24.4729C26.3176 24.1241 26.1156 23.8671 26.0973 23.8854C25.9963 23.9864 26.7857 25.1063 27.3824 25.7122C28.3463 26.6944 28.4289 26.878 27.4926 25.9692C27.0061 25.501 26.5471 24.9411 26.3176 24.5647C26.1156 24.2159 25.932 23.9589 25.9045 23.9772C25.776 24.1149 26.6848 25.3633 27.4742 26.1528C27.9607 26.6301 28.3555 27.0616 28.3555 27.1075C28.3555 27.1626 27.8873 26.7219 27.309 26.1436C26.5471 25.3725 26.1799 24.9227 25.9688 24.5005C25.8035 24.17 25.6475 23.9589 25.6291 24.0231C25.5832 24.1424 25.418 24.0874 25.418 23.9405C25.418 23.8854 25.4639 23.8762 25.5098 23.9038C25.5648 23.9313 25.6016 23.913 25.6016 23.8487C25.6016 23.7753 25.6383 23.7753 25.7393 23.8579C25.8219 23.9313 25.877 23.9405 25.877 23.8762C25.877 23.8212 25.8402 23.7569 25.7852 23.7202C25.7393 23.6926 25.6107 23.5366 25.5006 23.3714L25.2895 23.0776L25.5373 23.2979C25.675 23.4264 25.7852 23.4723 25.7852 23.4081ZM32.826 26.3364C35.6992 26.8321 38.4164 27.5665 40.2707 28.3651C42.2627 29.2188 43.4561 30.1368 43.9701 31.2383C44.4383 32.2206 44.2914 32.8264 43.3551 33.8454L42.8135 34.4329L42.4555 33.9647C42.2627 33.6985 42.0791 33.5149 42.0424 33.5424C42.0148 33.57 42.0516 33.6342 42.1158 33.671C42.1801 33.7169 42.2168 33.7903 42.1801 33.8454C42.1525 33.8913 42.1893 34.0932 42.2535 34.286C42.327 34.488 42.3912 34.5706 42.3912 34.4788C42.4004 34.387 42.3545 34.2309 42.2994 34.1208C42.2443 34.0198 42.226 33.9188 42.2535 33.8913C42.2811 33.8637 42.3729 33.9831 42.4555 34.1667C42.6023 34.4788 42.5748 34.846 42.4096 34.745C42.3637 34.7083 42.1984 34.7909 42.0424 34.9194C41.6844 35.2223 40.2982 35.8741 38.8846 36.3973C35.7818 37.554 30.9809 38.4811 27.5293 38.6005C26.4186 38.6372 26.0146 38.6923 25.675 38.8299C25.0783 39.0686 23.6738 39.0778 23.1965 38.8391C22.9303 38.7014 22.5539 38.6555 21.3514 38.6096C18.0283 38.4719 13.3559 37.609 10.3449 36.5626C8.94043 36.0669 7.25137 35.2774 6.7832 34.8919L6.46191 34.6165L6.67305 34.1299C6.7832 33.8546 6.875 33.5883 6.875 33.5424C6.875 33.3772 6.53535 34.0932 6.46191 34.3962C6.4252 34.5981 6.36094 34.6715 6.30586 34.6165C6.25078 34.5614 6.29668 34.3503 6.40684 34.0381C6.64551 33.4231 6.64551 33.2579 6.41602 33.6801L6.2416 34.0014L6.27832 33.6526C6.31504 33.3497 6.29668 33.313 6.18652 33.4048C6.07637 33.4965 6.04883 33.4874 6.04883 33.3313C6.04883 33.1294 5.66328 32.909 5.1125 32.8173C4.72695 32.7438 4.63516 32.5694 4.69023 32.0186C4.71777 31.7249 4.73613 31.7065 5.22266 31.6147C6.08555 31.4403 6.41602 31.1006 6.41602 30.3755C6.41602 30.1092 6.46191 29.9899 6.59043 29.9165C6.74648 29.8339 6.77402 29.8614 6.81074 30.1184C6.84746 30.4214 6.84746 30.4122 6.85664 30.0725C6.88418 29.5585 7.05859 29.6594 7.05859 30.1919C7.05859 30.4397 7.09531 30.6508 7.15039 30.6508C7.19629 30.6508 7.22383 30.4397 7.21465 30.1735L7.19629 29.6962L7.70117 29.3932C8.26113 29.0536 8.38965 29.026 8.47227 29.2372C8.50898 29.3381 8.36211 29.5493 8.0041 29.9073C7.31563 30.5774 7.21465 30.7151 7.07695 31.1649C6.65469 32.5694 7.5543 33.6618 10.0145 34.7266C12.4287 35.7731 15.7977 36.5717 19.8092 37.0491C21.6727 37.2694 27.107 37.2694 28.9063 37.0399C32.3578 36.6176 34.873 36.0944 37.2139 35.3141C40.4084 34.2493 41.9322 33.1202 41.9414 31.8167C41.9414 31.1098 41.1703 30.0542 40.1697 29.4208C38.701 28.4844 35.7359 27.5665 32.5506 27.0616C32.0182 26.979 31.7979 26.9055 31.7061 26.7678C31.6326 26.6577 31.5867 26.5659 31.6051 26.5475C31.6418 26.5108 32.3854 26.6577 33.1748 26.8596C33.4777 26.9331 33.8266 27.0065 33.9551 27.0157C34.0836 27.0249 34.3682 27.0799 34.5885 27.1534C34.7996 27.2176 35.0016 27.2452 35.0291 27.2176C35.0842 27.1717 34.3773 26.9698 33.5604 26.7954C33.2666 26.7403 33.0463 26.6669 33.0738 26.6393C33.1656 26.5475 35.0199 27.0065 35.332 27.1993C35.6809 27.4288 36.0939 27.5665 36.0113 27.4288C35.9838 27.3829 35.9104 27.3462 35.8369 27.3462C35.7635 27.3462 35.6809 27.3003 35.6441 27.2452C35.5523 27.0983 35.9654 27.2268 36.2684 27.4471C36.5438 27.6399 36.6631 27.6674 36.5713 27.5298C36.4795 27.3829 36.5805 27.4196 37.6729 27.9061C37.9299 28.0163 38.2053 28.1173 38.2971 28.1264C38.3797 28.1356 38.5633 28.2458 38.701 28.3651C38.8846 28.5303 38.9305 28.5487 38.8846 28.4202C38.8111 28.2274 38.8938 28.2182 39.1049 28.411C39.2426 28.5303 39.3986 28.5946 39.6648 28.6221C39.6924 28.6313 39.8576 28.7415 40.032 28.8792C40.1973 29.0169 40.2799 29.0628 40.2064 28.971C40.0137 28.7231 40.1697 28.7782 40.95 29.2372L41.6752 29.6594L41.6568 30.1551C41.6477 30.4305 41.666 30.6784 41.6936 30.7151C41.7303 30.7426 41.7578 30.6233 41.7578 30.4397C41.7578 30.2653 41.7945 30.0083 41.8404 29.8889C41.923 29.6778 41.8772 29.6411 41.1795 29.2464C40.3992 28.8057 39.1875 28.2641 38.8662 28.209C38.6367 28.1723 37.4342 27.6858 37.4709 27.6491C37.5535 27.5756 40.0596 28.512 40.7664 28.8792C41.8404 29.4299 42.0332 29.586 42.0424 29.944C42.0607 30.2194 42.0607 30.2194 42.0975 29.9899L42.1342 29.7421L42.327 29.9348C42.4738 30.0817 42.5014 30.1919 42.4647 30.4397C42.3637 31.0456 43.1072 31.6698 43.7773 31.5413C43.9701 31.5046 43.9609 31.5046 43.7131 31.4862C43.5203 31.477 43.3275 31.376 43.1256 31.1741C42.9604 31.018 42.8594 30.9354 42.9053 31.0089C42.9512 31.1006 42.942 31.119 42.8777 31.0731C42.8135 31.0364 42.7676 30.9446 42.7676 30.8712C42.7676 30.7977 42.7309 30.761 42.6758 30.7885C42.6207 30.8253 42.584 30.6784 42.584 30.4122C42.584 30.045 42.5381 29.944 42.2627 29.687C41.6844 29.1362 39.3252 28.053 37.5811 27.5298C36.0297 27.0708 33.3584 26.5108 32.6057 26.4924C32.266 26.4833 32.1008 26.4465 32.1926 26.4098C32.2844 26.3639 32.1926 26.3456 31.9631 26.3639C31.752 26.3731 31.6051 26.3548 31.6234 26.3272C31.6418 26.2905 31.6051 26.2354 31.55 26.2171C31.293 26.1161 31.7703 26.162 32.826 26.3364ZM35.1484 27.7225C36.7182 28.0805 38.6826 28.7323 39.4996 29.1637C40.592 29.7421 41.6018 30.8436 41.666 31.5229C41.7211 32.0921 41.6477 32.3858 41.3355 32.8173C41.152 33.0651 41.0326 33.1844 41.0602 33.0835C41.0969 32.9825 40.9775 33.0743 40.7848 33.2946C40.6012 33.5149 40.4268 33.671 40.3992 33.6434C40.3809 33.6159 40.2064 33.7077 40.0229 33.8546C39.4262 34.3135 39.4078 34.2768 39.9586 33.7169C40.5828 33.0926 40.9316 32.4225 40.9225 31.8901L40.9133 31.5229L40.8398 31.9452C40.6838 32.8448 40.0688 33.6618 39.1141 34.2217C38.5357 34.5614 36.1857 35.4794 36.1031 35.3967C36.0756 35.3784 36.507 35.204 37.0486 35.0112C38.4531 34.5247 39.2334 34.1024 39.8393 33.5241C40.5736 32.8264 40.7939 32.1288 40.5645 31.2934C40.5186 31.1098 40.4084 30.8803 40.335 30.7885C40.2064 30.6325 40.2064 30.6417 40.335 30.9079C40.4268 31.0915 40.4818 31.4495 40.4818 31.8075C40.4818 32.7714 40.032 33.4139 38.9121 34.0749C38.4807 34.3227 36.0664 35.2774 36.0113 35.2131C35.993 35.1948 36.5713 34.9469 37.3057 34.6532C38.0309 34.3594 38.8846 33.9464 39.1875 33.7444C39.7199 33.4048 40.2891 32.7714 40.2891 32.5419C40.2891 32.4868 40.2064 32.5694 40.1147 32.7346C39.5547 33.6526 36.5346 35.0204 33.3676 35.7915C30.834 36.4157 27.7496 36.737 24.2246 36.737C20.2682 36.737 17.9916 36.4249 14.4482 35.4059C11.4648 34.5522 10.3174 34.0932 9.47285 33.4139C8.84863 32.9274 8.61914 32.4776 8.60996 31.734L8.60078 31.1557L8.50898 31.6514C8.38965 32.2848 8.57324 32.7989 9.11484 33.3405C9.77578 33.9923 11.777 34.846 14.0168 35.4335C14.6318 35.5987 15.1184 35.7456 15.1 35.7639C15.0816 35.7823 14.5033 35.663 13.824 35.4885C12.5848 35.1673 10.8957 34.5522 10.0053 34.0932C9.37188 33.7811 8.7293 33.1753 8.51816 32.7163C8.32539 32.3032 8.28867 31.5321 8.44473 31.1374C8.51816 30.9446 8.50898 30.9079 8.43555 30.9813C8.27949 31.1374 8.1418 31.835 8.20605 32.1563C8.36211 32.9366 8.70176 33.4506 9.3627 33.8637C9.61055 34.029 9.8125 34.1758 9.8125 34.2034C9.8125 34.2217 9.67481 34.1575 9.50039 34.0565C9.10566 33.8087 9.00469 33.8087 9.225 34.0657C9.34434 34.2034 9.24336 34.1575 8.94043 33.9464C8.05918 33.3313 7.67363 32.4409 7.85723 31.4678C7.93066 31.1374 7.92148 31.0364 7.85723 31.1006C7.68281 31.2751 7.66445 32.3399 7.82969 32.8173L7.97656 33.2487L7.75625 33.0467C7.40742 32.7255 7.24219 32.2848 7.24219 31.7157C7.24219 31.0823 7.44414 30.66 7.98574 30.1092C8.43555 29.6594 8.92207 29.3657 8.83945 29.5952C8.80273 29.6686 8.75684 29.7329 8.72012 29.7329C8.57324 29.7329 7.89395 30.504 7.65527 30.9354C7.43496 31.3393 7.40742 31.477 7.44414 31.9911C7.4625 32.3124 7.52676 32.6245 7.59102 32.6887C7.67363 32.7714 7.67363 32.7255 7.60938 32.4776C7.38906 31.7157 7.64609 30.9262 8.35293 30.2102C8.74766 29.8155 8.79355 29.7971 9.14238 29.8247C9.71152 29.8614 11.318 29.586 13.0896 29.1362C14.182 28.8608 15.0908 28.6405 15.1092 28.6589C15.1826 28.7415 14.8613 28.8975 14.127 29.1362C12.6674 29.6135 11.832 30.1551 11.5658 30.8161C11.4557 31.0823 11.4557 31.1649 11.6025 31.4862C11.8963 32.138 12.7041 32.6796 14.0627 33.1294C14.4023 33.2487 14.6686 33.3589 14.641 33.3772C14.5676 33.4506 13.2549 33.01 12.6123 32.6979L11.9697 32.3858L12.291 32.6704C13.007 33.3038 14.485 33.7536 16.9268 34.084C17.45 34.1575 17.6887 34.2126 17.4775 34.2217C17.2756 34.2217 16.5596 34.1483 15.8803 34.0473C14.6135 33.8637 14.1178 33.8546 15.1643 34.0381C16.5504 34.2768 17.7805 34.4145 19.543 34.5063C20.5803 34.5706 21.8838 34.644 22.4346 34.6807L23.4443 34.7542L22.6182 34.7817L21.792 34.8092L22.3428 34.8735C23.2883 34.9928 25.4822 34.9745 27.2906 34.8276C29.6223 34.6348 34.3131 34.0106 34.2029 33.9005C34.1846 33.8821 33.7623 33.928 33.2574 34.0014C31.7152 34.2309 31.7244 34.1391 33.2666 33.827C35.2953 33.4139 36.2225 33.0835 36.8008 32.5878C37.0211 32.395 37.0027 32.395 36.5713 32.6061C36.0389 32.8631 34.6068 33.3497 34.5518 33.2946C34.5242 33.2762 34.7904 33.1569 35.1301 33.0467C36.1857 32.6887 36.9109 32.2481 37.1955 31.8075C37.7188 30.9721 37.4066 30.3112 36.1949 29.6686C35.4881 29.3014 34.4232 28.9067 33.7715 28.769C33.2758 28.668 32.3119 27.8786 32.3027 27.5665C32.3027 27.5022 32.7066 27.5389 33.4777 27.6858C35.8461 28.1173 38.3889 28.9067 39.5455 29.5676C40.95 30.3663 41.6109 31.4862 41.2621 32.4868C41.0969 32.9733 41.1244 33.0743 41.308 32.652C41.5191 32.1471 41.4641 31.3944 41.1795 30.9079C40.8857 30.403 40.1789 29.7512 39.5272 29.384C38.2053 28.6405 35.4514 27.8327 32.6057 27.337C32.2385 27.2727 31.9355 27.1993 31.9355 27.1626C31.9355 27.0799 33.5787 27.3737 35.1484 27.7225ZM13.1723 30.3755C12.6031 31.0089 12.7592 31.5872 13.668 32.193C15.6875 33.5424 20.2314 34.3227 25.4639 34.2034C27.9975 34.1483 29.5855 33.9923 31.3022 33.6251C35.0107 32.8448 36.8283 31.6423 35.9195 30.5682C35.6258 30.2194 35.6992 30.1919 36.0113 30.5315C36.6906 31.2659 36.2133 32.0186 34.5701 32.7989C32.1283 33.9647 27.823 34.6073 23.3984 34.4696C19.4053 34.3411 16.4678 33.7903 14.3564 32.7622C13.4752 32.3307 13.007 31.9635 12.8051 31.5229C12.5939 31.0915 12.6857 30.7243 13.0805 30.3204C13.5211 29.8889 13.5762 29.9256 13.1723 30.3755ZM35.5982 35.562C35.4881 35.663 32.9729 36.2505 31.7061 36.4708C28.9338 36.9389 27.8965 37.0215 24.3623 37.0215C20.7088 37.0307 20.0938 36.9756 16.835 36.379C15.1551 36.076 13.6221 35.718 13.6955 35.6446C13.7139 35.6262 14.283 35.7364 14.9623 35.8833C16.6422 36.2505 18.6066 36.5809 20.1396 36.7645C21.9297 36.9756 26.6389 36.9756 28.6768 36.7645C30.9166 36.5258 33.4318 36.0852 34.9189 35.663C35.3963 35.5253 35.6717 35.4885 35.5982 35.562ZM19.2676 38.628C19.7449 38.6739 20.7363 38.7473 21.4707 38.784C22.2326 38.8208 22.9211 38.9034 23.0955 38.9676C23.4994 39.1421 25.2895 39.1421 25.7025 38.9676C25.8861 38.8942 26.5838 38.8208 27.4375 38.784C28.7135 38.729 29.8977 38.6372 30.9717 38.4995C31.2471 38.4719 31.2838 38.4719 31.1094 38.5362C30.8982 38.6005 29.5029 38.7932 27.5752 39.0044C26.9051 39.0778 26.9326 39.087 27.9424 39.0411C28.5482 39.0227 29.4387 38.9401 29.916 38.8667C30.8523 38.7198 31.0727 38.7014 30.9992 38.7749C30.9166 38.8667 28.7318 39.1971 27.3549 39.3256C24.7754 39.5735 22.0215 39.4817 19.2676 39.0503C17.9916 38.8483 17.1379 38.6647 17.3857 38.6464C17.4408 38.6372 18.0191 38.7198 18.6709 38.8116C19.9285 38.9952 22.1133 39.1604 21.2412 39.0044C20.9934 38.9585 20.2039 38.8575 19.4971 38.7749C18.7902 38.6923 18.065 38.5913 17.8906 38.5454C17.5877 38.4628 17.5969 38.4628 17.9824 38.4995C18.2119 38.527 18.7902 38.5821 19.2676 38.628Z"
            fill="white" />
        <path
            d="M27.9977 11.0412C28.0161 11.0596 28.4475 11.234 28.9524 11.4176C30.1366 11.8582 31.9725 12.8863 32.7987 13.5748C33.7993 14.401 36.8011 17.5771 36.8011 17.8158C36.8011 17.9902 36.6358 17.8434 36.1309 17.21C35.4241 16.3195 33.4964 14.3643 32.8079 13.8318C32.1561 13.3361 30.7975 12.51 29.9071 12.0602C29.2278 11.7113 28.1262 11.2799 27.9518 11.2799C27.8968 11.2891 28.2089 11.4268 28.6403 11.592C30.5772 12.3355 32.3122 13.483 33.9553 15.1354C35.2221 16.393 36.5532 17.8893 36.4798 17.9719C36.443 18.0086 35.727 17.265 34.497 15.9156C33.5514 14.86 31.844 13.4371 31.1555 13.1066C31.0454 13.0516 31.0546 13.0791 31.2014 13.1801C32.8905 14.4102 34.0747 15.5576 35.5067 17.4119C36.03 18.082 35.7637 17.926 35.1854 17.2191C34.2491 16.0809 33.4964 15.3281 32.1378 14.199C31.3208 13.5105 30.8526 13.0607 30.8893 12.9965C30.9261 12.9322 30.9261 12.9139 30.8893 12.9506C30.8526 12.9781 30.5405 12.8312 30.2009 12.6109C29.3747 12.0785 27.5846 11.2891 27.4653 11.4084C27.4378 11.4268 27.5846 11.491 27.7774 11.5553C28.4843 11.7848 29.6134 12.3172 30.1458 12.6844C31.3483 13.4922 34.1114 16.1543 34.7999 17.1457C35.3966 18.0086 35.2497 17.9627 34.5337 17.0631C34.2307 16.6867 33.8636 16.2461 33.7167 16.0992C33.4505 15.8238 31.8807 14.4377 30.7425 13.483C30.4212 13.2076 30.0907 12.923 30.0264 12.868C29.6684 12.5375 27.1165 11.3809 27.0063 11.5002C26.9788 11.5186 27.1899 11.6195 27.4561 11.7205C28.5026 12.1152 29.5307 12.666 30.2376 13.226C31.6971 14.3643 33.6983 16.292 34.3225 17.1457C34.8091 17.8066 34.9651 17.9719 35.1579 17.9719C35.571 17.9811 35.9749 18.0912 35.9198 18.1738C35.8923 18.2197 36.0116 18.2289 36.1768 18.1922C36.544 18.1279 37.6456 17.6965 37.5997 17.6414C37.5813 17.623 37.4436 17.6506 37.3059 17.7057C37.1682 17.7607 37.0397 17.7883 37.0305 17.7791C36.902 17.5771 35.1762 15.6861 34.4694 14.9701C33.2302 13.7033 32.1745 12.8863 30.8067 12.1703C29.7327 11.6012 27.7499 10.8025 27.9977 11.0412Z"
            fill="white" />
        <path
            d="M26.7127 11.6874C26.7311 11.7057 27.1992 11.9169 27.75 12.1647C29.0903 12.7522 29.843 13.2663 31.1832 14.5055C31.9819 15.2399 32.6061 15.9284 33.2762 16.8096C34.1483 17.9571 34.4145 18.3518 34.3043 18.3518C34.286 18.3518 33.8821 17.8561 33.4231 17.2595C32.4592 16.0202 30.5131 14.0833 29.5217 13.3856C28.8791 12.9266 27.9887 12.4309 27.9887 12.5227C27.9887 12.5411 28.1539 12.6512 28.3467 12.7522C29.7696 13.4682 31.7065 15.3225 33.2119 17.3696C33.6801 18.0122 34.0473 18.563 34.0289 18.5813C34.0106 18.6089 33.6526 18.205 33.2487 17.6817C31.9084 15.9927 30.5315 14.5514 29.5125 13.7895C28.6496 13.1378 27.2543 12.2932 27.2543 12.4218C27.2543 12.4493 27.4287 12.5594 27.6491 12.6696C28.9067 13.3122 30.4489 14.5606 31.4127 15.7173C32.3399 16.8464 33.7168 18.719 33.6526 18.7833C33.625 18.8016 33.2854 18.3977 32.8907 17.8745C32.092 16.8005 30.9537 15.4602 30.3571 14.8911C29.7512 14.3128 27.3461 12.6237 27.3461 12.7798C27.3461 12.7981 27.5573 12.945 27.8143 13.1102C28.87 13.762 30.4305 15.0288 30.9813 15.6805C31.6514 16.4516 33.1569 18.6272 33.0375 18.6272C32.9916 18.6272 32.5877 18.1407 32.1471 17.544C30.7977 15.7448 28.8791 13.9548 27.236 12.9634C26.9698 12.7981 26.6668 12.6421 26.5658 12.6145C26.4649 12.5778 26.5934 12.6696 26.8412 12.8165C27.5664 13.2296 28.1539 13.6518 29.1362 14.4596C30.4948 15.5704 31.2842 16.47 31.9819 17.6542C32.45 18.462 32.6795 18.6731 33.1844 18.8016C33.7352 18.9393 34.084 18.82 34.4787 18.361L34.7725 18.0122L34.0106 17.0575C33.0559 15.8458 32.7438 15.5796 33.5332 16.6536C34.1116 17.4155 34.1758 17.5257 34.1116 17.5257C34.0381 17.5257 32.8539 15.9743 32.8539 15.8917C32.8539 15.8366 32.7805 15.7356 32.6795 15.6714C32.5877 15.6071 32.1471 15.2124 31.6973 14.8085C29.8522 13.1286 29.3473 12.7706 27.7225 12.0546C26.8688 11.6874 26.6117 11.5864 26.7127 11.6874Z"
            fill="white" />
        <path
            d="M15.9624 12.5862C15.072 13.2839 13.6767 14.7251 13.1259 15.5054C11.9785 17.1394 11.2441 18.8009 11.0146 20.288C10.8494 21.3712 10.6841 23.7028 10.6841 25.0706C10.6841 25.8417 10.6474 26.3558 10.6107 26.2823C10.4087 25.9243 10.5556 21.9771 10.831 20.2054C11.0146 19.0487 11.6205 17.4974 12.3456 16.3774C12.7679 15.7073 12.6669 15.7257 12.2171 16.3958C10.9779 18.2226 10.4455 20.4991 10.2986 24.5106C10.2343 26.3833 10.271 26.6312 10.6749 26.879C10.9962 27.081 11.1431 27.1269 11.0605 26.9983C11.0421 26.9616 10.9687 26.3466 10.9136 25.6489C10.8402 24.7126 10.8402 23.9231 10.9136 22.7573C11.1247 19.3792 11.3175 18.6724 12.7312 16.3315C13.1902 15.5788 14.3285 14.1192 14.7415 13.7704C14.8792 13.6419 15.3107 13.2747 15.6871 12.9534C16.504 12.2466 16.6601 12.1089 16.605 12.1089C16.5775 12.1181 16.2929 12.3292 15.9624 12.5862Z"
            fill="white" />
        <path
            d="M15.4587 13.3855C14.1827 14.487 13.329 15.5794 12.4019 17.3144C11.5665 18.8566 11.181 20.0683 11.2085 21.0413C11.2177 21.2984 11.1718 22.2806 11.1076 23.2169C11.0066 24.7683 11.0708 26.9806 11.2177 27.1275C11.2452 27.155 11.4839 27.1183 11.7501 27.054C12.1632 26.9531 12.2734 26.8888 12.4019 26.6318C12.5947 26.2462 12.8242 25.98 13.1179 25.8331C13.3107 25.7322 13.4392 25.7322 13.8523 25.8423C14.1368 25.9157 14.4949 25.9525 14.6785 25.9249C15.1191 25.8423 15.6882 25.5118 15.6882 25.3282C15.6882 25.1447 15.2384 22.4734 15.1925 22.3449C15.0732 22.0603 15.2935 24.3277 15.4679 25.163C15.4954 25.3099 15.4771 25.42 15.4312 25.42C15.3853 25.42 15.2476 24.8142 15.1374 24.0615C14.8253 21.9501 14.7702 21.739 14.8253 22.8497C14.8529 23.3822 14.9263 24.2175 14.9906 24.7132C15.0548 25.2089 15.0732 25.5761 15.0365 25.5394C14.9538 25.4476 14.6326 23.5749 14.4949 22.299C14.4306 21.7665 14.3663 21.3167 14.3388 21.2892C14.2378 21.179 14.5224 24.2267 14.7335 25.5118C14.7611 25.7138 14.7519 25.7964 14.6968 25.7413C14.5775 25.6128 14.247 23.6575 14.1277 22.3449C14.0726 21.739 14.0083 21.1974 13.9808 21.1515C13.9074 20.9771 14.0451 23.7218 14.1644 24.7316C14.2745 25.6679 14.2745 25.879 14.1827 25.7781C14.1368 25.7322 13.8798 23.8962 13.7146 22.3907L13.5861 21.2433L13.6228 22.6202C13.6503 23.373 13.7146 24.3368 13.7697 24.7499C13.9257 25.9341 13.8156 25.8515 13.6136 24.6306C13.4851 23.7952 13.4392 23.1068 13.4484 21.7023C13.4576 20.004 13.4759 19.8021 13.7054 18.9575C13.8339 18.4618 13.9349 18.0304 13.9165 18.012C13.8431 17.9478 13.4943 19.3798 13.3841 20.1417C13.2648 21.0138 13.2372 23.8687 13.3382 24.9152C13.3841 25.4017 13.3749 25.622 13.3199 25.5577C13.1822 25.42 13.0261 23.529 13.0261 22.097C13.0261 20.0132 13.173 19.3156 14.0175 17.296C14.4673 16.222 14.6785 15.8273 14.6785 16.0568C14.6785 16.1302 14.8161 15.9374 14.9906 15.6253C15.1558 15.3224 15.422 14.8818 15.5872 14.6615L15.8902 14.2667L15.523 14.6798C15.3118 14.9093 15.0456 15.2857 14.9263 15.5243C14.7978 15.763 14.6785 15.9374 14.6601 15.9099C14.5224 15.7814 13.4851 18.1406 13.1913 19.2238C12.9435 20.1876 12.7874 22.9599 12.9068 24.5021C12.9986 25.6679 12.9894 25.879 12.8884 25.7781C12.7599 25.6495 12.6406 23.3546 12.6865 21.8032C12.7415 19.8572 12.8517 19.2605 13.4392 17.8376C13.9165 16.6993 14.1368 16.2863 14.706 15.4784C15.3118 14.6431 15.3302 14.5421 14.7335 15.304C14.1644 16.0568 13.8064 16.681 13.3841 17.6907C12.6314 19.4991 12.4202 21.0505 12.4937 24.2267C12.5488 26.4023 12.457 26.2095 12.2917 23.8136C12.0898 20.9036 12.4386 19.0493 13.6595 16.6351C14.0267 15.8915 14.7611 14.9001 15.679 13.8904C15.9636 13.5874 15.8718 13.67 15.4679 14.074C14.0726 15.5243 13.3566 16.7177 12.6773 18.7648C12.2091 20.1693 12.1081 20.9954 12.099 23.6759C12.0898 25.4751 12.0714 25.723 11.998 25.1447C11.9521 24.7683 11.9337 23.5015 11.9521 22.3449C11.9888 20.4263 12.0163 20.1601 12.2367 19.4074C12.512 18.4435 12.4845 18.2324 12.1999 19.1503C11.8695 20.2152 11.796 21.1148 11.7868 24.0706C11.7868 25.9525 11.7593 26.7695 11.7042 26.5032C11.6124 26.0259 11.5757 22.1245 11.6675 21.2892C11.7042 20.8945 11.7042 20.8027 11.6492 21.0138C11.4839 21.7023 11.3646 24.1165 11.4197 25.5118C11.4564 26.2921 11.4656 26.9072 11.4288 26.8796C11.4013 26.8521 11.337 26.2462 11.3003 25.5394C11.1993 23.9146 11.3187 21.6197 11.5665 20.564C11.8236 19.4441 12.7599 17.14 12.8976 17.2777C12.9251 17.3052 13.0812 17.0665 13.2464 16.7544C13.6962 15.8915 14.2011 15.1572 14.7978 14.5329C15.0824 14.2208 15.321 13.9363 15.321 13.8904C15.321 13.6976 14.2286 15.0103 13.5677 16.0109C12.5212 17.5806 11.4839 19.8296 11.4564 20.5915C11.4564 20.6925 11.4105 20.8669 11.3646 20.9679C11.1902 21.3351 11.3829 20.1509 11.6124 19.3615C11.8786 18.4802 12.2367 17.7366 12.9894 16.5066C13.7329 15.2673 14.1736 14.7257 15.3394 13.6333C15.8993 13.1009 16.3492 12.6603 16.3216 12.6603C16.3033 12.6695 15.9177 12.9907 15.4587 13.3855Z"
            fill="white" />
        <path
            d="M29.5691 15.4967C30.1658 16.0658 30.9461 16.9287 31.3041 17.4153C31.6713 17.9018 32.0293 18.3608 32.1119 18.425C32.2404 18.526 32.2404 18.5535 32.1211 18.627C31.965 18.728 32.0109 18.7647 31.4326 17.9477C30.9369 17.2408 29.5232 15.7354 28.6879 15.0285C28.3391 14.7348 28.4951 14.9184 29.101 15.5059C30.0924 16.4881 30.8084 17.351 31.4234 18.2781C32.0109 19.1594 31.7447 19.0492 31.1021 18.1496C30.4412 17.2225 29.1285 15.7813 28.5135 15.3039C28.2748 15.1295 28.4309 15.3223 28.9266 15.8364C29.358 16.2862 29.8721 16.8369 30.0648 17.0664C30.5697 17.6815 31.5979 19.2787 31.5244 19.343C31.4877 19.3797 31.4143 19.3246 31.35 19.2328C31.0104 18.6545 29.7527 17.0481 29.202 16.4881C28.3299 15.5885 27.9902 15.3131 28.7246 16.1026C29.6701 17.1123 31.3867 19.4899 31.2582 19.6092C31.1939 19.6826 31.2215 19.7194 30.6982 18.9483C30.1016 18.0854 29.0092 16.736 28.5318 16.2862C28.2473 16.0199 28.3115 16.1117 28.7521 16.635C29.4682 17.4887 30.9828 19.701 30.9094 19.7836C30.8727 19.8112 30.634 19.5082 30.3678 19.1135C29.8537 18.3516 28.4951 16.6442 28.2105 16.4239C28.1188 16.3504 28.3115 16.635 28.642 17.0664C29.4498 18.1037 30.5881 19.8203 30.5238 19.8938C30.4596 19.958 30.4871 19.9947 30.0098 19.2696C29.56 18.5903 28.0912 16.6992 28.0178 16.6992C27.9994 16.6992 28.1096 16.8737 28.2656 17.0848C28.7154 17.6815 30.1934 19.9305 30.1934 20.0223C30.1934 20.1875 30.0832 20.059 29.5416 19.242C28.9357 18.3424 28.1922 17.3418 28.1188 17.3418C28.1004 17.3418 28.2748 17.6447 28.5227 18.0028C29.2938 19.1594 29.8537 20.1049 29.7986 20.1508C29.6977 20.2518 29.5416 20.0682 28.8623 19.0584C28.4859 18.4893 28.0729 17.9018 27.9443 17.7549C27.8066 17.5989 27.9076 17.7916 28.1555 18.168C28.9082 19.3338 29.2938 20.0131 29.2387 20.0682C29.1469 20.1692 28.8439 19.8295 28.3482 19.0768C28.0912 18.6821 27.8617 18.3516 27.8342 18.3516C27.7791 18.3516 27.9535 18.6637 28.3666 19.2971C28.7521 19.8938 28.7889 20.0039 28.6053 20.0039C28.5318 20.0039 28.2656 19.6735 27.9994 19.2696C27.5221 18.5444 27.2559 18.2506 27.6047 18.8289C28.1922 19.8112 28.284 20.0223 28.1922 20.1141C28.1279 20.1783 27.9811 20.0039 27.7148 19.5541C27.5037 19.1961 27.3109 18.9024 27.2834 18.9024C27.2559 18.9024 27.4119 19.2145 27.623 19.6C27.8617 20.0315 27.9811 20.3528 27.9443 20.4446C27.8984 20.5639 27.8158 20.4629 27.6139 20.0682C27.467 19.7836 27.3201 19.5449 27.3018 19.5449C27.2375 19.5449 27.5037 20.1783 27.6689 20.4262C27.7699 20.5914 27.7791 20.6557 27.6781 20.7842C27.5771 20.9219 27.5313 20.8668 27.3109 20.3344C27.1641 19.9947 27.0264 19.7377 27.008 19.7653C26.9805 19.7928 27.0723 20.0406 27.2008 20.3344C27.4303 20.8301 27.5037 21.1147 27.3844 20.9862C27.3477 20.9586 27.265 20.9862 27.2008 21.0596C27.1273 21.1239 26.6867 21.3166 26.2002 21.4727C25.7229 21.6287 25.3281 21.7848 25.3281 21.8031C25.3281 21.8766 25.8422 21.7205 27.21 21.2156C28.8256 20.6281 29.0459 20.5088 27.9994 20.8026L27.7791 20.8576L28.027 20.5272C28.3482 20.1049 28.5135 20.059 29.1652 20.1967C29.7895 20.3344 29.7619 20.3436 30.7441 19.9947C31.7264 19.6459 32.1211 19.4531 32.0936 19.3338C32.0844 19.2879 32.1303 19.2237 32.2037 19.1961C32.2863 19.1686 32.3047 19.1961 32.2588 19.2696C32.2037 19.3522 32.2404 19.3522 32.4057 19.2696C32.7178 19.1043 32.7545 19.0492 32.4975 19.1319C32.3506 19.1778 32.3047 19.1686 32.3414 19.0951C32.4607 18.9024 32.3047 18.9942 31.9375 19.3246C31.7355 19.5082 31.5428 19.6367 31.5152 19.6092C31.4602 19.5541 31.91 18.8106 32.0109 18.8106C32.0477 18.8106 32.1578 18.7463 32.2496 18.6729C32.4148 18.5444 32.4057 18.5168 32.0201 18.0578C31.7906 17.7916 31.5061 17.4244 31.3684 17.2408C30.9094 16.6166 30.1658 15.8639 29.3305 15.1571L28.4951 14.4594L29.5691 15.4967Z"
            fill="white" />
        <path
            d="M6.79413 31.1635C6.76659 31.5674 6.1332 32.1182 5.69257 32.1182C5.59159 32.1182 5.49062 32.1458 5.47226 32.1825C5.44472 32.2284 5.58242 32.2559 5.77519 32.2559C6.68398 32.2743 7.39999 33.4952 6.87675 34.1653C6.77577 34.2938 6.69316 34.4958 6.70234 34.6151C6.71152 34.8171 6.7207 34.7987 6.84003 34.4223C6.86757 34.3214 6.93183 34.3673 7.05117 34.56C7.2164 34.8262 7.51933 35.1292 7.51933 35.019C7.51933 34.9823 7.40917 34.7987 7.28066 34.5967C7.14296 34.3948 7.06034 34.202 7.09706 34.1653C7.1246 34.1378 7.15214 34.1561 7.15214 34.2204C7.15214 34.2846 7.18886 34.3122 7.22558 34.2846C7.27148 34.2571 7.52851 34.4591 7.79472 34.7344C8.06093 35.0098 8.31796 35.2118 8.35468 35.1842C8.3914 35.1659 8.44648 35.1842 8.4832 35.2393C8.55663 35.3587 8.80449 35.3587 8.80449 35.2393C8.80449 35.1934 8.54745 34.8905 8.23535 34.5784C7.91406 34.2755 7.758 34.0919 7.88652 34.1928C8.24452 34.4682 8.99726 35.1292 9.41952 35.5423C9.92441 36.038 9.93359 35.8544 9.4287 35.2852C9.17167 34.9915 9.10742 34.8813 9.24511 34.9548C9.35527 35.0098 9.48378 35.1383 9.53886 35.2301C9.58476 35.3219 9.84179 35.579 10.108 35.7993C10.6037 36.2032 10.4935 36.0196 9.90605 35.4505C9.69492 35.2485 9.6582 35.1659 9.77753 35.2301C9.88769 35.2852 10.1631 35.5423 10.4018 35.7993C10.7414 36.1757 10.824 36.2307 10.824 36.0747C10.824 35.9645 10.7781 35.8819 10.7139 35.8819C10.6588 35.8819 10.6312 35.8544 10.668 35.8268C10.7322 35.7534 11.5217 36.1114 11.6043 36.2491C11.6318 36.295 11.7053 36.3409 11.7512 36.3409C11.8062 36.3409 11.8154 36.295 11.7879 36.2491C11.7144 36.1298 11.7053 36.1298 12.2928 36.3501C12.5682 36.451 12.8711 36.6071 12.9629 36.6897C13.1098 36.8274 13.1189 36.8274 13.073 36.6805C13.018 36.552 13.0455 36.5428 13.3209 36.6438C13.4861 36.7081 13.6514 36.7907 13.6789 36.8274C13.7064 36.8641 13.8258 36.8641 13.9359 36.8182C14.1195 36.754 14.0736 36.7264 13.6146 36.6163C13.3117 36.5428 13.0547 36.4878 13.0271 36.4786C12.9996 36.4786 12.9445 36.451 12.8894 36.4235C12.8435 36.3868 12.5498 36.295 12.2469 36.2124C11.3014 35.9462 10.2824 35.5147 10.6037 35.5147C10.6588 35.5147 10.9984 35.6157 11.3564 35.7442C13.5963 36.5245 17.9658 37.369 20.3801 37.4883C21.2889 37.5251 21.2613 37.5251 19.866 37.3507C15.1935 36.7815 11.54 35.8727 9.12577 34.6885C8.00585 34.1378 7.37245 33.6604 7.09706 33.1739C6.98691 32.9719 6.76659 32.6598 6.61054 32.4762C6.39941 32.2192 6.36269 32.1274 6.46367 32.0815C6.66562 32.0081 6.89511 31.494 6.84921 31.2186C6.82167 31.035 6.81249 31.0167 6.79413 31.1635Z"
            fill="white" />
        <path
            d="M41.7581 33.2674C41.4184 33.8182 39.9956 34.6627 38.3616 35.2686C35.6536 36.2783 32.8262 36.875 28.0803 37.4442C27.4194 37.5268 27.4286 37.5268 28.3098 37.4809C30.7149 37.3524 34.2491 36.719 36.8102 35.9479C37.5721 35.7184 38.1504 35.5807 38.1321 35.6449C38.1229 35.7 38.0862 35.8194 38.0495 35.902C38.0128 35.9846 38.0036 36.1039 38.0403 36.159C38.077 36.2233 38.3065 36.058 38.6278 35.7276C38.9215 35.4338 39.2979 35.1217 39.4723 35.0299C39.7477 34.883 39.7202 34.9198 39.2704 35.3512C38.995 35.6174 38.8022 35.8102 38.8573 35.7643C39.0042 35.6633 39.1143 35.6908 39.0409 35.8102C39.0042 35.8744 39.1694 35.7459 39.4081 35.5164C39.7936 35.1492 39.8487 35.1217 39.9313 35.2686C40.0415 35.4614 40.1424 35.3971 40.8217 34.7637C41.4184 34.2037 41.6204 34.1119 41.1155 34.6352C40.8952 34.8647 40.7483 35.0574 40.7942 35.0574C40.9135 35.0483 41.1981 34.8004 41.5102 34.4332C41.8499 34.0201 41.8315 34.2129 41.4827 34.6444C41.3358 34.8371 41.2073 35.0116 41.2073 35.0299C41.2073 35.1309 41.5928 34.8371 41.7948 34.5801C42.0335 34.2772 42.0335 34.2772 42.0426 34.5067C42.0518 34.6535 42.0702 34.6811 42.0977 34.5801C42.1161 34.4975 42.0702 34.3047 41.9967 34.1487C41.8315 33.8274 41.804 33.3776 41.9417 33.1205C42.1069 32.8268 41.9692 32.9278 41.7581 33.2674Z"
            fill="white" />
        <path
            d="M8.84006 30.9732C8.58303 31.5974 8.74826 32.0472 9.48264 32.7448C10.0885 33.3232 10.7403 33.6445 12.2365 34.131C16.7071 35.5814 23.7387 36.0679 30.2838 35.3794C33.102 35.0765 34.8553 34.746 36.6637 34.1677C38.417 33.6077 39.3717 33.0386 39.849 32.2583C40.0785 31.882 40.0785 31.0007 39.8582 30.8263C39.7205 30.7253 39.7113 30.7253 39.8123 30.8355C39.9776 31.0191 39.95 31.8544 39.7664 32.1206C39.2248 32.9376 38.4446 33.415 36.7922 33.9657C31.826 35.5905 22.1965 36.0036 15.8258 34.8654C12.6863 34.2962 10.4373 33.5251 9.62951 32.7357C8.89514 32.0105 8.70236 31.5331 8.93186 30.9823C9.00529 30.7988 9.05119 30.6519 9.02365 30.6519C8.99611 30.6519 8.9135 30.7988 8.84006 30.9732Z"
            fill="white" />
        <path
            d="M39.4527 30.9907C39.7006 31.4864 39.4986 32.129 38.9845 32.5146C38.0666 33.203 35.7441 33.9925 33.5869 34.3597C30.7963 34.8278 25.6189 35.2042 23.3056 35.1032C18.3853 34.8921 14.7134 34.3964 12.4093 33.6345C10.3072 32.9276 9.47184 32.386 9.22399 31.5782C9.15055 31.3487 9.0863 31.2386 9.0863 31.3304C9.06794 31.8812 9.75641 32.6431 10.7019 33.1204C13.7129 34.6351 21.1484 35.5347 27.4365 35.1491C34.0734 34.736 38.7 33.5794 39.4711 32.1198C39.6822 31.7343 39.6914 31.211 39.4986 30.9632C39.3609 30.798 39.3609 30.798 39.4527 30.9907Z"
            fill="white" />
        <path
            d="M40.1589 31.4572C40.2874 32.1182 39.7091 32.9443 38.6901 33.541C37.6712 34.1377 34.954 34.9363 32.6683 35.3219C27.7755 36.148 20.6061 36.148 16.0897 35.3311C13.0145 34.7711 10.38 33.8623 9.49873 33.0545C9.35185 32.9168 9.12236 32.6414 8.97549 32.4486C8.66338 32.0264 8.63584 32.0723 8.89287 32.568C9.21416 33.2105 10.0128 33.7705 11.3897 34.3121C11.6743 34.4314 11.9589 34.4957 12.0231 34.4498C12.0966 34.4039 12.1058 34.4223 12.0599 34.5049C12.0048 34.5967 12.0323 34.615 12.1792 34.5783C12.3077 34.5416 12.3628 34.56 12.3169 34.6242C12.2802 34.6793 12.3169 34.6977 12.4087 34.6609C12.5005 34.6334 12.5647 34.6426 12.5647 34.6793C12.5647 34.7252 12.6565 34.7436 12.7759 34.716C12.9411 34.6793 12.9503 34.6885 12.8401 34.7803C12.73 34.8629 12.7392 34.8721 12.9228 34.8262C13.0604 34.7803 13.1155 34.7986 13.0788 34.8537C13.0513 34.8996 13.1431 34.9639 13.2808 34.9822C13.4185 35.0098 14.0427 35.1842 14.6761 35.3678C15.9888 35.7533 17.43 36.0562 19.4036 36.3592C20.6612 36.552 21.0835 36.5703 24.3147 36.5703C27.4817 36.5703 28.005 36.5428 29.4095 36.3592C32.1817 35.9828 33.4485 35.7074 36.0923 34.9088C36.1749 34.8812 36.23 34.8354 36.2116 34.7986C36.1933 34.7619 36.2667 34.7252 36.3768 34.7252C36.4778 34.716 37.1296 34.4682 37.7997 34.1744C39.1216 33.5961 39.8743 33.0453 40.1038 32.4762C40.1772 32.3018 40.2507 32.2375 40.2874 32.3018C40.3792 32.4578 40.2782 31.4572 40.1864 31.292C40.1405 31.2094 40.1313 31.2645 40.1589 31.4572Z"
            fill="white" />
    </g>
    <defs>
        <clipPath id="clip0_335_1949">
            <rect width="49" height="49" fill="white" />
        </clipPath>
    </defs>
</svg>