<?xml version="1.0" standalone="no"?>
<!DOCTYPE svg PUBLIC "-//W3C//DTD SVG 20010904//EN"
 "http://www.w3.org/TR/2001/REC-SVG-20010904/DTD/svg10.dtd">
<svg version="1.0" xmlns="http://www.w3.org/2000/svg"
 width="600.000000pt" height="600.000000pt" viewBox="0 0 600.000000 600.000000"
 preserveAspectRatio="xMidYMid meet">
<metadata>
Created by potrace 1.16, written by Peter Selinger 2001-2019
</metadata>
<g transform="translate(0.000000,600.000000) scale(0.100000,-0.100000)"
fill="#000000" stroke="none">
<path d="M2740 4455 c-210 -46 -361 -162 -446 -340 -55 -115 -75 -210 -81
-387 l-6 -157 -52 -16 c-200 -58 -372 -211 -453 -402 -27 -65 -52 -166 -52
-217 0 -35 -7 -46 -75 -112 -137 -133 -195 -254 -195 -408 0 -102 30 -190 93
-278 224 -314 755 -474 1054 -317 31 16 57 28 58 27 2 -2 21 -40 44 -86 72
-144 148 -204 235 -188 52 10 99 56 130 128 15 35 31 70 35 78 17 33 114 95
271 173 312 156 628 241 979 263 91 5 117 10 132 25 35 35 25 72 -51 190 -47
72 -83 178 -110 320 -11 57 -23 112 -26 121 -3 11 10 26 43 49 194 133 295
291 322 507 35 281 -117 596 -350 725 -170 95 -397 101 -587 17 l-47 -21 -24
33 c-14 18 -55 63 -93 100 -73 73 -183 134 -293 164 -84 23 -366 29 -455 9z
m385 -140 c168 -36 303 -136 370 -276 19 -41 35 -79 35 -86 0 -6 28 5 63 26
262 160 505 146 687 -38 76 -76 130 -176 156 -286 24 -105 15 -259 -20 -345
-50 -123 -152 -233 -278 -300 -53 -29 -63 -31 -109 -23 l-51 8 73 50 c92 62
207 175 243 237 20 34 29 66 32 110 5 68 7 70 -38 -30 -48 -104 -174 -215
-373 -330 -52 -30 -73 -36 -157 -43 -53 -4 -117 -11 -142 -14 l-44 -7 38 74
c112 213 122 442 29 646 -16 36 -31 63 -33 61 -2 -2 0 -24 4 -49 15 -73 11
-245 -6 -328 -21 -100 -72 -226 -130 -320 -73 -116 -93 -135 -192 -176 -49
-20 -138 -66 -198 -101 -60 -36 -116 -65 -125 -65 -29 0 -134 59 -193 109 -65
55 -123 122 -168 190 -43 69 -33 26 17 -67 55 -103 119 -187 185 -242 71 -60
69 -74 -33 -179 -45 -47 -112 -124 -148 -171 -78 -103 -99 -115 -166 -99 -108
27 -228 94 -317 178 -26 25 -44 37 -38 25 18 -35 155 -159 213 -192 30 -17 87
-41 128 -54 69 -21 76 -26 92 -63 50 -109 -6 -190 -156 -229 -275 -72 -702
116 -822 362 -38 78 -43 174 -13 255 27 71 93 156 183 232 l67 57 0 63 c0 77
31 200 67 268 42 79 146 178 232 221 75 38 201 76 253 76 l29 0 -8 73 c-15
139 -8 324 16 412 58 209 187 337 381 379 87 19 277 19 365 1z m893 -1444 c24
-5 50 -15 58 -22 7 -8 23 -67 34 -131 24 -143 62 -261 106 -331 l33 -52 -37
-3 c-98 -7 -330 -47 -456 -79 -326 -82 -612 -210 -798 -357 -50 -40 -59 -53
-74 -103 -9 -32 -23 -65 -31 -73 -13 -13 -18 -11 -44 20 -37 44 -199 372 -199
403 0 30 130 188 231 280 324 298 676 449 1059 455 41 1 95 -3 118 -7z"/>
</g>
</svg>
